<mxfile host="app.diagrams.net" modified="2024-02-16T02:27:52.034Z" agent="Mozilla/5.0 (Macintosh; Intel Mac OS X 10_15_7) AppleWebKit/537.36 (KHTML, like Gecko) Chrome/121.0.0.0 Safari/537.36" etag="s3VayZv15GU6vqG7dOLL" version="23.1.4" type="github">
  <diagram name="Page-1" id="e3a06f82-3646-2815-327d-82caf3d4e204">
    <mxGraphModel dx="3204.5" dy="2157" grid="1" gridSize="10" guides="1" tooltips="1" connect="1" arrows="1" fold="1" page="1" pageScale="1.5" pageWidth="1169" pageHeight="826" background="none" math="0" shadow="0">
      <root>
        <mxCell id="0" style=";html=1;" />
        <mxCell id="1" style=";html=1;" parent="0" />
        <mxCell id="qeWwrRHILzP10hV6NdzV-42" value="" style="edgeStyle=orthogonalEdgeStyle;rounded=0;orthogonalLoop=1;jettySize=auto;html=1;exitX=0.5;exitY=1;exitDx=0;exitDy=0;" parent="1" source="KvXDZKAQtkTupum_VZ-A-2" target="qeWwrRHILzP10hV6NdzV-16" edge="1">
          <mxGeometry relative="1" as="geometry" />
        </mxCell>
        <mxCell id="z4TrzMqa454sXHD6cD-Q-60" style="edgeStyle=orthogonalEdgeStyle;rounded=0;orthogonalLoop=1;jettySize=auto;html=1;exitX=0.5;exitY=1;exitDx=0;exitDy=0;" edge="1" parent="1" source="qeWwrRHILzP10hV6NdzV-14" target="KvXDZKAQtkTupum_VZ-A-2">
          <mxGeometry relative="1" as="geometry" />
        </mxCell>
        <mxCell id="z4TrzMqa454sXHD6cD-Q-61" style="edgeStyle=orthogonalEdgeStyle;rounded=0;orthogonalLoop=1;jettySize=auto;html=1;exitX=0.5;exitY=1;exitDx=0;exitDy=0;" edge="1" parent="1" source="qeWwrRHILzP10hV6NdzV-14" target="qeWwrRHILzP10hV6NdzV-15">
          <mxGeometry relative="1" as="geometry" />
        </mxCell>
        <mxCell id="qeWwrRHILzP10hV6NdzV-14" value="二老太爷" style="rounded=0;whiteSpace=wrap;html=1;fillColor=#dae8fc;strokeColor=#6c8ebf;" parent="1" vertex="1">
          <mxGeometry x="210" y="-100" width="100" height="40" as="geometry" />
        </mxCell>
        <mxCell id="qeWwrRHILzP10hV6NdzV-15" value="徐氏（勇毅候独女）（一子夭折）" style="rounded=0;whiteSpace=wrap;html=1;fillColor=#ffe6cc;strokeColor=#d79b00;" parent="1" vertex="1">
          <mxGeometry x="100" y="10" width="100" height="40" as="geometry" />
        </mxCell>
        <mxCell id="z4TrzMqa454sXHD6cD-Q-37" style="edgeStyle=orthogonalEdgeStyle;rounded=0;orthogonalLoop=1;jettySize=auto;html=1;exitX=0.5;exitY=1;exitDx=0;exitDy=0;entryX=0.5;entryY=0;entryDx=0;entryDy=0;dashed=1;" edge="1" parent="1" source="qeWwrRHILzP10hV6NdzV-16" target="KvXDZKAQtkTupum_VZ-A-4">
          <mxGeometry relative="1" as="geometry" />
        </mxCell>
        <mxCell id="z4TrzMqa454sXHD6cD-Q-38" style="edgeStyle=orthogonalEdgeStyle;rounded=0;orthogonalLoop=1;jettySize=auto;html=1;exitX=0.5;exitY=1;exitDx=0;exitDy=0;dashed=1;" edge="1" parent="1" source="qeWwrRHILzP10hV6NdzV-16" target="qeWwrRHILzP10hV6NdzV-44">
          <mxGeometry relative="1" as="geometry" />
        </mxCell>
        <mxCell id="z4TrzMqa454sXHD6cD-Q-39" style="edgeStyle=orthogonalEdgeStyle;rounded=0;orthogonalLoop=1;jettySize=auto;html=1;exitX=0.5;exitY=1;exitDx=0;exitDy=0;entryX=0.5;entryY=0;entryDx=0;entryDy=0;dashed=1;" edge="1" parent="1" source="qeWwrRHILzP10hV6NdzV-16" target="KvXDZKAQtkTupum_VZ-A-5">
          <mxGeometry relative="1" as="geometry" />
        </mxCell>
        <mxCell id="qeWwrRHILzP10hV6NdzV-16" value="盛泓" style="rounded=0;whiteSpace=wrap;html=1;fillColor=#dae8fc;strokeColor=#6c8ebf;dashed=1;" parent="1" vertex="1">
          <mxGeometry x="320" y="120" width="100" height="40" as="geometry" />
        </mxCell>
        <mxCell id="qeWwrRHILzP10hV6NdzV-18" value="顾家" style="ellipse;whiteSpace=wrap;html=1;aspect=fixed;" parent="1" vertex="1">
          <mxGeometry x="1190" y="-210" width="50" height="50" as="geometry" />
        </mxCell>
        <mxCell id="qeWwrRHILzP10hV6NdzV-20" value="盛家" style="ellipse;whiteSpace=wrap;html=1;" parent="1" vertex="1">
          <mxGeometry x="241" y="-210" width="59" height="50" as="geometry" />
        </mxCell>
        <mxCell id="qeWwrRHILzP10hV6NdzV-26" value="盛长柏(一)" style="rounded=0;whiteSpace=wrap;html=1;fillColor=#dae8fc;strokeColor=#6c8ebf;" parent="1" vertex="1">
          <mxGeometry x="40" y="325" width="106" height="40" as="geometry" />
        </mxCell>
        <mxCell id="qeWwrRHILzP10hV6NdzV-28" value="盛如兰(五)" style="whiteSpace=wrap;html=1;fillColor=#ffe6cc;strokeColor=#d79b00;rounded=0;" parent="1" vertex="1">
          <mxGeometry x="300" y="325" width="110" height="40" as="geometry" />
        </mxCell>
        <mxCell id="qeWwrRHILzP10hV6NdzV-32" value="盛墨兰(四)" style="whiteSpace=wrap;html=1;fillColor=#ffe6cc;strokeColor=#d79b00;rounded=0;" parent="1" vertex="1">
          <mxGeometry x="430" y="330" width="110" height="40" as="geometry" />
        </mxCell>
        <mxCell id="z4TrzMqa454sXHD6cD-Q-86" style="edgeStyle=orthogonalEdgeStyle;rounded=0;orthogonalLoop=1;jettySize=auto;html=1;exitX=1;exitY=0.5;exitDx=0;exitDy=0;entryX=0;entryY=0.5;entryDx=0;entryDy=0;curved=1;dashed=1;endArrow=none;endFill=0;" edge="1" parent="1" source="qeWwrRHILzP10hV6NdzV-33" target="z4TrzMqa454sXHD6cD-Q-13">
          <mxGeometry relative="1" as="geometry">
            <Array as="points">
              <mxPoint x="930" y="350" />
              <mxPoint x="930" y="250" />
            </Array>
          </mxGeometry>
        </mxCell>
        <mxCell id="qeWwrRHILzP10hV6NdzV-33" value="盛明兰(五)" style="whiteSpace=wrap;html=1;fillColor=#ffe6cc;strokeColor=#d79b00;rounded=0;" parent="1" vertex="1">
          <mxGeometry x="670" y="330" width="110" height="40" as="geometry" />
        </mxCell>
        <mxCell id="qeWwrRHILzP10hV6NdzV-34" value="盛华兰(二)" style="whiteSpace=wrap;html=1;fillColor=#ffe6cc;strokeColor=#d79b00;rounded=0;" parent="1" vertex="1">
          <mxGeometry x="170" y="325" width="110" height="40" as="geometry" />
        </mxCell>
        <mxCell id="qeWwrRHILzP10hV6NdzV-36" value="盛长枫(三)" style="rounded=0;whiteSpace=wrap;html=1;fillColor=#dae8fc;strokeColor=#6c8ebf;" parent="1" vertex="1">
          <mxGeometry x="551" y="330" width="106" height="40" as="geometry" />
        </mxCell>
        <mxCell id="KvXDZKAQtkTupum_VZ-A-11" style="edgeStyle=orthogonalEdgeStyle;rounded=0;orthogonalLoop=1;jettySize=auto;html=1;exitX=0.5;exitY=1;exitDx=0;exitDy=0;entryX=0.5;entryY=0;entryDx=0;entryDy=0;" parent="1" source="qeWwrRHILzP10hV6NdzV-44" target="qeWwrRHILzP10hV6NdzV-28" edge="1">
          <mxGeometry relative="1" as="geometry" />
        </mxCell>
        <mxCell id="KvXDZKAQtkTupum_VZ-A-12" style="edgeStyle=orthogonalEdgeStyle;rounded=0;orthogonalLoop=1;jettySize=auto;html=1;exitX=0.5;exitY=1;exitDx=0;exitDy=0;entryX=0.5;entryY=0;entryDx=0;entryDy=0;" parent="1" source="qeWwrRHILzP10hV6NdzV-44" target="qeWwrRHILzP10hV6NdzV-34" edge="1">
          <mxGeometry relative="1" as="geometry" />
        </mxCell>
        <mxCell id="KvXDZKAQtkTupum_VZ-A-13" style="edgeStyle=orthogonalEdgeStyle;rounded=0;orthogonalLoop=1;jettySize=auto;html=1;exitX=0.5;exitY=1;exitDx=0;exitDy=0;entryX=0.5;entryY=0;entryDx=0;entryDy=0;" parent="1" source="qeWwrRHILzP10hV6NdzV-44" target="qeWwrRHILzP10hV6NdzV-26" edge="1">
          <mxGeometry relative="1" as="geometry" />
        </mxCell>
        <mxCell id="qeWwrRHILzP10hV6NdzV-44" value="王若弗" style="rounded=0;whiteSpace=wrap;html=1;fillColor=#ffe6cc;strokeColor=#d79b00;" parent="1" vertex="1">
          <mxGeometry x="175" y="200" width="100" height="40" as="geometry" />
        </mxCell>
        <mxCell id="qeWwrRHILzP10hV6NdzV-106" value="" style="edgeStyle=orthogonalEdgeStyle;rounded=0;orthogonalLoop=1;jettySize=auto;html=1;exitX=0.5;exitY=1;exitDx=0;exitDy=0;entryX=0.5;entryY=0;entryDx=0;entryDy=0;" parent="1" source="qeWwrRHILzP10hV6NdzV-123" target="qeWwrRHILzP10hV6NdzV-109" edge="1">
          <mxGeometry relative="1" as="geometry">
            <mxPoint x="1125.461538461538" y="135" as="targetPoint" />
          </mxGeometry>
        </mxCell>
        <mxCell id="z4TrzMqa454sXHD6cD-Q-33" style="edgeStyle=orthogonalEdgeStyle;rounded=0;orthogonalLoop=1;jettySize=auto;html=1;exitX=0.5;exitY=1;exitDx=0;exitDy=0;entryX=0.5;entryY=0;entryDx=0;entryDy=0;dashed=1;" edge="1" parent="1" source="qeWwrRHILzP10hV6NdzV-107" target="qeWwrRHILzP10hV6NdzV-108">
          <mxGeometry relative="1" as="geometry" />
        </mxCell>
        <mxCell id="z4TrzMqa454sXHD6cD-Q-34" style="edgeStyle=orthogonalEdgeStyle;rounded=0;orthogonalLoop=1;jettySize=auto;html=1;exitX=0.5;exitY=1;exitDx=0;exitDy=0;entryX=0.5;entryY=0;entryDx=0;entryDy=0;dashed=1;" edge="1" parent="1" source="qeWwrRHILzP10hV6NdzV-107" target="qeWwrRHILzP10hV6NdzV-123">
          <mxGeometry relative="1" as="geometry" />
        </mxCell>
        <mxCell id="z4TrzMqa454sXHD6cD-Q-35" style="edgeStyle=orthogonalEdgeStyle;rounded=0;orthogonalLoop=1;jettySize=auto;html=1;exitX=0.5;exitY=1;exitDx=0;exitDy=0;entryX=0.5;entryY=0;entryDx=0;entryDy=0;dashed=1;" edge="1" parent="1" source="qeWwrRHILzP10hV6NdzV-107" target="qeWwrRHILzP10hV6NdzV-120">
          <mxGeometry relative="1" as="geometry" />
        </mxCell>
        <mxCell id="qeWwrRHILzP10hV6NdzV-107" value="顾堰开(一)" style="rounded=0;whiteSpace=wrap;html=1;fillColor=#dae8fc;strokeColor=#6c8ebf;" parent="1" vertex="1">
          <mxGeometry x="1174.5" y="-45" width="100" height="40" as="geometry" />
        </mxCell>
        <mxCell id="z4TrzMqa454sXHD6cD-Q-1" style="edgeStyle=orthogonalEdgeStyle;rounded=0;orthogonalLoop=1;jettySize=auto;html=1;exitX=0.5;exitY=1;exitDx=0;exitDy=0;" edge="1" parent="1" source="qeWwrRHILzP10hV6NdzV-108" target="KvXDZKAQtkTupum_VZ-A-15">
          <mxGeometry relative="1" as="geometry" />
        </mxCell>
        <mxCell id="qeWwrRHILzP10hV6NdzV-108" value="大秦夫人" style="rounded=0;whiteSpace=wrap;html=1;fillColor=#ffe6cc;strokeColor=#d79b00;" parent="1" vertex="1">
          <mxGeometry x="940" y="45" width="100" height="40" as="geometry" />
        </mxCell>
        <mxCell id="z4TrzMqa454sXHD6cD-Q-27" style="edgeStyle=orthogonalEdgeStyle;rounded=0;orthogonalLoop=1;jettySize=auto;html=1;exitX=0.5;exitY=1;exitDx=0;exitDy=0;entryX=0.5;entryY=0;entryDx=0;entryDy=0;dashed=1;" edge="1" parent="1" source="qeWwrRHILzP10hV6NdzV-109" target="z4TrzMqa454sXHD6cD-Q-13">
          <mxGeometry relative="1" as="geometry" />
        </mxCell>
        <mxCell id="z4TrzMqa454sXHD6cD-Q-29" style="edgeStyle=orthogonalEdgeStyle;rounded=0;orthogonalLoop=1;jettySize=auto;html=1;exitX=0.5;exitY=1;exitDx=0;exitDy=0;entryX=0.5;entryY=0;entryDx=0;entryDy=0;dashed=1;" edge="1" parent="1" source="qeWwrRHILzP10hV6NdzV-109" target="z4TrzMqa454sXHD6cD-Q-15">
          <mxGeometry relative="1" as="geometry" />
        </mxCell>
        <mxCell id="z4TrzMqa454sXHD6cD-Q-32" style="edgeStyle=orthogonalEdgeStyle;rounded=0;orthogonalLoop=1;jettySize=auto;html=1;exitX=0.5;exitY=1;exitDx=0;exitDy=0;entryX=0.5;entryY=0;entryDx=0;entryDy=0;dashed=1;" edge="1" parent="1" source="qeWwrRHILzP10hV6NdzV-109" target="z4TrzMqa454sXHD6cD-Q-31">
          <mxGeometry relative="1" as="geometry" />
        </mxCell>
        <mxCell id="qeWwrRHILzP10hV6NdzV-109" value="顾廷烨" style="rounded=0;whiteSpace=wrap;html=1;fillColor=#dae8fc;strokeColor=#6c8ebf;" parent="1" vertex="1">
          <mxGeometry x="1174.5" y="140" width="100" height="40" as="geometry" />
        </mxCell>
        <mxCell id="qeWwrRHILzP10hV6NdzV-111" value="团哥(一)" style="rounded=0;whiteSpace=wrap;html=1;fillColor=#dae8fc;strokeColor=#6c8ebf;" parent="1" vertex="1">
          <mxGeometry x="944.5" y="330" width="106" height="40" as="geometry" />
        </mxCell>
        <mxCell id="qeWwrRHILzP10hV6NdzV-113" value="蓉姐儿" style="whiteSpace=wrap;html=1;fillColor=#ffe6cc;strokeColor=#d79b00;rounded=0;dashed=1;" parent="1" vertex="1">
          <mxGeometry x="1454.5" y="330" width="110" height="40" as="geometry" />
        </mxCell>
        <mxCell id="z4TrzMqa454sXHD6cD-Q-4" style="edgeStyle=orthogonalEdgeStyle;rounded=0;orthogonalLoop=1;jettySize=auto;html=1;exitX=0.5;exitY=1;exitDx=0;exitDy=0;entryX=0.5;entryY=0;entryDx=0;entryDy=0;" edge="1" parent="1" source="qeWwrRHILzP10hV6NdzV-120" target="z4TrzMqa454sXHD6cD-Q-3">
          <mxGeometry relative="1" as="geometry" />
        </mxCell>
        <mxCell id="qeWwrRHILzP10hV6NdzV-120" value="小秦夫人" style="rounded=0;whiteSpace=wrap;html=1;fillColor=#ffe6cc;strokeColor=#d79b00;" parent="1" vertex="1">
          <mxGeometry x="1674.5" y="45" width="100" height="40" as="geometry" />
        </mxCell>
        <mxCell id="qeWwrRHILzP10hV6NdzV-123" value="白氏" style="rounded=0;whiteSpace=wrap;html=1;fillColor=#ffe6cc;strokeColor=#d79b00;" parent="1" vertex="1">
          <mxGeometry x="1174.5" y="45" width="100" height="40" as="geometry" />
        </mxCell>
        <mxCell id="KvXDZKAQtkTupum_VZ-A-2" value="春姨娘" style="rounded=0;whiteSpace=wrap;html=1;fillColor=#ffe6cc;strokeColor=#d79b00;dashed=1;" parent="1" vertex="1">
          <mxGeometry x="320" y="10" width="100" height="40" as="geometry" />
        </mxCell>
        <mxCell id="KvXDZKAQtkTupum_VZ-A-9" style="edgeStyle=orthogonalEdgeStyle;rounded=0;orthogonalLoop=1;jettySize=auto;html=1;exitX=0.5;exitY=1;exitDx=0;exitDy=0;entryX=0.5;entryY=0;entryDx=0;entryDy=0;" parent="1" source="KvXDZKAQtkTupum_VZ-A-4" target="qeWwrRHILzP10hV6NdzV-32" edge="1">
          <mxGeometry relative="1" as="geometry" />
        </mxCell>
        <mxCell id="KvXDZKAQtkTupum_VZ-A-10" style="edgeStyle=orthogonalEdgeStyle;rounded=0;orthogonalLoop=1;jettySize=auto;html=1;" parent="1" source="KvXDZKAQtkTupum_VZ-A-4" target="qeWwrRHILzP10hV6NdzV-36" edge="1">
          <mxGeometry relative="1" as="geometry" />
        </mxCell>
        <mxCell id="KvXDZKAQtkTupum_VZ-A-4" value="林噙霜" style="rounded=0;whiteSpace=wrap;html=1;fillColor=#ffe6cc;strokeColor=#d79b00;dashed=1;" parent="1" vertex="1">
          <mxGeometry x="505" y="200" width="100" height="40" as="geometry" />
        </mxCell>
        <mxCell id="KvXDZKAQtkTupum_VZ-A-14" style="edgeStyle=orthogonalEdgeStyle;rounded=0;orthogonalLoop=1;jettySize=auto;html=1;exitX=0.5;exitY=1;exitDx=0;exitDy=0;entryX=0.5;entryY=0;entryDx=0;entryDy=0;" parent="1" source="KvXDZKAQtkTupum_VZ-A-5" target="qeWwrRHILzP10hV6NdzV-33" edge="1">
          <mxGeometry relative="1" as="geometry" />
        </mxCell>
        <mxCell id="KvXDZKAQtkTupum_VZ-A-5" value="卫恕意(卫小娘&lt;br&gt;)" style="rounded=0;whiteSpace=wrap;html=1;fillColor=#ffe6cc;strokeColor=#d79b00;dashed=1;" parent="1" vertex="1">
          <mxGeometry x="675" y="200" width="100" height="40" as="geometry" />
        </mxCell>
        <mxCell id="KvXDZKAQtkTupum_VZ-A-15" value="顾廷煜" style="rounded=0;whiteSpace=wrap;html=1;fillColor=#dae8fc;strokeColor=#6c8ebf;" parent="1" vertex="1">
          <mxGeometry x="940" y="140" width="100" height="40" as="geometry" />
        </mxCell>
        <mxCell id="z4TrzMqa454sXHD6cD-Q-3" value="顾廷炜" style="rounded=0;whiteSpace=wrap;html=1;fillColor=#dae8fc;strokeColor=#6c8ebf;" vertex="1" parent="1">
          <mxGeometry x="1674.5" y="135" width="100" height="40" as="geometry" />
        </mxCell>
        <mxCell id="z4TrzMqa454sXHD6cD-Q-6" value="圆哥(二)" style="rounded=0;whiteSpace=wrap;html=1;fillColor=#dae8fc;strokeColor=#6c8ebf;" vertex="1" parent="1">
          <mxGeometry x="1063.5" y="330" width="106" height="40" as="geometry" />
        </mxCell>
        <mxCell id="z4TrzMqa454sXHD6cD-Q-7" value="西游(四)" style="rounded=0;whiteSpace=wrap;html=1;fillColor=#dae8fc;strokeColor=#6c8ebf;" vertex="1" parent="1">
          <mxGeometry x="1304.5" y="330" width="106" height="40" as="geometry" />
        </mxCell>
        <mxCell id="z4TrzMqa454sXHD6cD-Q-8" value="东游(三)" style="rounded=0;whiteSpace=wrap;html=1;fillColor=#dae8fc;strokeColor=#6c8ebf;" vertex="1" parent="1">
          <mxGeometry x="1184.5" y="330" width="106" height="40" as="geometry" />
        </mxCell>
        <mxCell id="z4TrzMqa454sXHD6cD-Q-13" value="盛明兰" style="whiteSpace=wrap;html=1;fillColor=#ffe6cc;strokeColor=#d79b00;rounded=0;" vertex="1" parent="1">
          <mxGeometry x="1169.5" y="230" width="110" height="40" as="geometry" />
        </mxCell>
        <mxCell id="z4TrzMqa454sXHD6cD-Q-15" value="朱曼娘" style="whiteSpace=wrap;html=1;fillColor=#ffe6cc;strokeColor=#d79b00;rounded=0;dashed=1;" vertex="1" parent="1">
          <mxGeometry x="1454.5" y="230" width="110" height="40" as="geometry" />
        </mxCell>
        <mxCell id="z4TrzMqa454sXHD6cD-Q-17" value="知否知否应是绿肥红瘦" style="ellipse;whiteSpace=wrap;html=1;" vertex="1" parent="1">
          <mxGeometry x="1220" y="-370" width="170" height="70" as="geometry" />
        </mxCell>
        <mxCell id="z4TrzMqa454sXHD6cD-Q-20" value="四房" style="rounded=0;whiteSpace=wrap;html=1;fillColor=#dae8fc;strokeColor=#6c8ebf;" vertex="1" parent="1">
          <mxGeometry x="2410" y="-100" width="100" height="40" as="geometry" />
        </mxCell>
        <mxCell id="z4TrzMqa454sXHD6cD-Q-21" value="五房" style="rounded=0;whiteSpace=wrap;html=1;fillColor=#dae8fc;strokeColor=#6c8ebf;" vertex="1" parent="1">
          <mxGeometry x="2640" y="-100" width="100" height="40" as="geometry" />
        </mxCell>
        <mxCell id="z4TrzMqa454sXHD6cD-Q-31" value="风仙" style="whiteSpace=wrap;html=1;fillColor=#ffe6cc;strokeColor=#d79b00;rounded=0;dashed=1;" vertex="1" parent="1">
          <mxGeometry x="1588.5" y="230" width="110" height="40" as="geometry" />
        </mxCell>
        <mxCell id="z4TrzMqa454sXHD6cD-Q-64" style="edgeStyle=orthogonalEdgeStyle;rounded=0;orthogonalLoop=1;jettySize=auto;html=1;exitX=0.5;exitY=1;exitDx=0;exitDy=0;entryX=0.5;entryY=0;entryDx=0;entryDy=0;dashed=1;" edge="1" parent="1" source="z4TrzMqa454sXHD6cD-Q-45" target="z4TrzMqa454sXHD6cD-Q-63">
          <mxGeometry relative="1" as="geometry" />
        </mxCell>
        <mxCell id="z4TrzMqa454sXHD6cD-Q-45" value="盛维(一)" style="rounded=0;whiteSpace=wrap;html=1;fillColor=#dae8fc;strokeColor=#6c8ebf;" vertex="1" parent="1">
          <mxGeometry x="-474" y="120" width="106" height="40" as="geometry" />
        </mxCell>
        <mxCell id="z4TrzMqa454sXHD6cD-Q-49" value="盛红(一)" style="whiteSpace=wrap;html=1;fillColor=#ffe6cc;strokeColor=#d79b00;rounded=0;" vertex="1" parent="1">
          <mxGeometry x="-336" y="120" width="110" height="40" as="geometry" />
        </mxCell>
        <mxCell id="z4TrzMqa454sXHD6cD-Q-63" value="妻：李氏（与盛老太公同时发迹的李老太公之庶孙女）" style="whiteSpace=wrap;html=1;fillColor=#ffe6cc;strokeColor=#d79b00;rounded=0;" vertex="1" parent="1">
          <mxGeometry x="-476" y="200" width="110" height="40" as="geometry" />
        </mxCell>
        <mxCell id="z4TrzMqa454sXHD6cD-Q-66" value="盛纭(一)" style="whiteSpace=wrap;html=1;fillColor=#ffe6cc;strokeColor=#d79b00;rounded=0;" vertex="1" parent="1">
          <mxGeometry x="-196" y="120" width="110" height="40" as="geometry" />
        </mxCell>
        <mxCell id="z4TrzMqa454sXHD6cD-Q-67" value="盛淑兰" style="whiteSpace=wrap;html=1;fillColor=#ffe6cc;strokeColor=#d79b00;rounded=0;" vertex="1" parent="1">
          <mxGeometry x="-530" y="325" width="110" height="40" as="geometry" />
        </mxCell>
        <mxCell id="z4TrzMqa454sXHD6cD-Q-68" value="盛长松" style="rounded=0;whiteSpace=wrap;html=1;fillColor=#dae8fc;strokeColor=#6c8ebf;" vertex="1" parent="1">
          <mxGeometry x="-650" y="325" width="106" height="40" as="geometry" />
        </mxCell>
        <mxCell id="z4TrzMqa454sXHD6cD-Q-72" value="盛长梧" style="rounded=0;whiteSpace=wrap;html=1;fillColor=#dae8fc;strokeColor=#6c8ebf;" vertex="1" parent="1">
          <mxGeometry x="-401" y="325" width="106" height="40" as="geometry" />
        </mxCell>
        <mxCell id="z4TrzMqa454sXHD6cD-Q-74" value="盛品兰" style="whiteSpace=wrap;html=1;fillColor=#ffe6cc;strokeColor=#d79b00;rounded=0;" vertex="1" parent="1">
          <mxGeometry x="-280" y="325" width="110" height="40" as="geometry" />
        </mxCell>
        <mxCell id="z4TrzMqa454sXHD6cD-Q-80" style="edgeStyle=orthogonalEdgeStyle;rounded=0;orthogonalLoop=1;jettySize=auto;html=1;exitX=0.5;exitY=1;exitDx=0;exitDy=0;" edge="1" parent="1" source="z4TrzMqa454sXHD6cD-Q-76" target="z4TrzMqa454sXHD6cD-Q-77">
          <mxGeometry relative="1" as="geometry" />
        </mxCell>
        <mxCell id="z4TrzMqa454sXHD6cD-Q-76" value="大老太爷" style="rounded=0;whiteSpace=wrap;html=1;fillColor=#dae8fc;strokeColor=#6c8ebf;" vertex="1" parent="1">
          <mxGeometry x="-336" y="-100" width="106" height="40" as="geometry" />
        </mxCell>
        <mxCell id="z4TrzMqa454sXHD6cD-Q-81" style="edgeStyle=orthogonalEdgeStyle;rounded=0;orthogonalLoop=1;jettySize=auto;html=1;exitX=0.5;exitY=1;exitDx=0;exitDy=0;" edge="1" parent="1" source="z4TrzMqa454sXHD6cD-Q-77" target="z4TrzMqa454sXHD6cD-Q-49">
          <mxGeometry relative="1" as="geometry" />
        </mxCell>
        <mxCell id="z4TrzMqa454sXHD6cD-Q-82" style="edgeStyle=orthogonalEdgeStyle;rounded=0;orthogonalLoop=1;jettySize=auto;html=1;exitX=0.5;exitY=1;exitDx=0;exitDy=0;" edge="1" parent="1" source="z4TrzMqa454sXHD6cD-Q-77" target="z4TrzMqa454sXHD6cD-Q-45">
          <mxGeometry relative="1" as="geometry" />
        </mxCell>
        <mxCell id="z4TrzMqa454sXHD6cD-Q-83" style="edgeStyle=orthogonalEdgeStyle;rounded=0;orthogonalLoop=1;jettySize=auto;html=1;exitX=0.5;exitY=1;exitDx=0;exitDy=0;entryX=0.5;entryY=0;entryDx=0;entryDy=0;" edge="1" parent="1" source="z4TrzMqa454sXHD6cD-Q-77" target="z4TrzMqa454sXHD6cD-Q-66">
          <mxGeometry relative="1" as="geometry" />
        </mxCell>
        <mxCell id="z4TrzMqa454sXHD6cD-Q-77" value="大老太太" style="whiteSpace=wrap;html=1;fillColor=#ffe6cc;strokeColor=#d79b00;rounded=0;" vertex="1" parent="1">
          <mxGeometry x="-337" y="10" width="110" height="40" as="geometry" />
        </mxCell>
      </root>
    </mxGraphModel>
  </diagram>
</mxfile>
